<svg xmlns="http://www.w3.org/2000/svg" viewBox="0 0 181 65"><defs><style>.cls-1,.cls-4,.cls-6{fill:none;stroke-miterlimit:22.93;}.cls-1{stroke:#0099db;}.cls-1,.cls-4{stroke-width:2px;}.cls-2,.cls-5{fill:#fff;}.cls-3{fill:#0099db;}.cls-4,.cls-6{stroke:#fff;}.cls-5{fill-rule:evenodd;}.cls-6{stroke-width:0.22px;}</style></defs><title>TRENQUE LOGO EN BLANCO</title><g id="Layer_1" data-name="Layer 1"><path class="cls-1" d="M168,5.27c5.57,0,10.13,4,10.13,9l0,39.15c0,4.94-4.54,9-10.11,9l-155.82.17c-5.57,0-10.13-4-10.13-9l0-39.15c0-4.94,4.54-9,10.11-9"/><polygon class="cls-2" points="155.02 48.62 154.99 18.71 169.62 18.69 169.62 24.08 161.41 24.09 161.42 30.89 168.08 30.88 168.09 36.32 161.43 36.33 161.43 43.22 170.63 43.21 170.63 48.61 155.02 48.62"/><path class="cls-2" d="M140,49.15a11.36,11.36,0,0,1-7.64-2.57,8.59,8.59,0,0,1-3.06-6.93l0-20.92h6.42l0,20.39a4.35,4.35,0,0,0,1.18,3.19,4.25,4.25,0,0,0,3.14,1.17,4.31,4.31,0,0,0,3.14-1.18,4.16,4.16,0,0,0,1.22-3.14l0-20.44h6.28l0,20.91a8.66,8.66,0,0,1-3,7A11.4,11.4,0,0,1,140,49.15"/><path class="cls-3" d="M124.14,54.83h-1a10.59,10.59,0,0,1-3.21-.49,11.52,11.52,0,0,1-3-1.5c-1-.67-2.06-1.37-3.24-2.09s-2.11-1.28-2.83-1.69a12.29,12.29,0,0,1-7.9-4.92,16.61,16.61,0,0,1-3.17-10.41q0-6.88,3.75-11.23a12,12,0,0,1,18.45,0q3.78,4.31,3.78,11.25a17.37,17.37,0,0,1-2.09,8.61,11.72,11.72,0,0,1-5.27,5.18,6.64,6.64,0,0,1,1.5.68l1.57.91a7.74,7.74,0,0,0,1.73.73,7.08,7.08,0,0,0,1.9.26,6.21,6.21,0,0,0,2.21-.38Z"/><path class="cls-4" d="M124.14,54.83h-1a10.59,10.59,0,0,1-3.21-.49,11.52,11.52,0,0,1-3-1.5c-1-.67-2.06-1.37-3.24-2.09s-2.11-1.28-2.83-1.69a12.29,12.29,0,0,1-7.9-4.92,16.61,16.61,0,0,1-3.17-10.41q0-6.88,3.75-11.23a12,12,0,0,1,18.45,0q3.78,4.31,3.78,11.25a17.37,17.37,0,0,1-2.09,8.61,11.72,11.72,0,0,1-5.27,5.18,6.64,6.64,0,0,1,1.5.68l1.57.91a7.74,7.74,0,0,0,1.73.73,7.08,7.08,0,0,0,1.9.26,6.21,6.21,0,0,0,2.21-.38Z"/><path class="cls-2" d="M92.63,48.92,83.82,36.87c-1.63-2.28-3-4.34-4.22-6.19l0,6v12H73.36V18.77h5.07l7.78,11,1.92,2.79Q89.21,34.1,90,35.33l0-5.49V18.77h6.33V48.92Z"/><polygon class="cls-2" points="54.89 48.69 54.89 18.77 69.52 18.77 69.52 24.17 61.31 24.17 61.31 30.96 67.97 30.96 67.97 36.4 61.31 36.4 61.31 43.3 70.5 43.3 70.5 48.69 54.89 48.69"/><path class="cls-2" d="M46.4,48.69,40,36.55H38.15V48.69H31.91V18.77h9.28a8.11,8.11,0,0,1,6,2.47,8.65,8.65,0,0,1,2.46,6.4A9,9,0,0,1,48.58,32a6.7,6.7,0,0,1-2.7,2.86l7.55,13.88Zm-6-24.76h-2.2v7.36h2.2a2.78,2.78,0,0,0,2.11-1,3.83,3.83,0,0,0,.89-2.69,3.91,3.91,0,0,0-.89-2.72A2.75,2.75,0,0,0,40.35,23.93Z"/><polygon class="cls-2" points="22.34 24.02 22.34 48.69 15.87 48.69 15.87 24.02 8.79 24.02 8.79 18.77 29.38 18.77 29.38 24.02 22.34 24.02"/><path class="cls-5" d="M112.8,24.83c2.11,1.92,4.1,4,6.1,6a1.42,1.42,0,0,1,0,2l-.45.45a1.51,1.51,0,0,1-2,0L114.77,32v8.86h-4V32l-1.46,1.33a1.44,1.44,0,0,1-2,0l-.45-.45a1.42,1.42,0,0,1,0-2C108.78,28.82,110.74,26.78,112.8,24.83Z"/><path class="cls-6" d="M112.8,24.83c2.11,1.92,4.1,4,6.1,6a1.42,1.42,0,0,1,0,2l-.45.45a1.51,1.51,0,0,1-2,0L114.77,32v8.86h-4V32l-1.46,1.33a1.44,1.44,0,0,1-2,0l-.45-.45a1.42,1.42,0,0,1,0-2C108.78,28.82,110.74,26.78,112.8,24.83Z"/><path class="cls-3" d="M14.08,8.52V2.2h1.26V8.52Z"/><path class="cls-3" d="M22.42,8.51,20.1,5.06c-.07-.12-.16-.24-.24-.38a2.9,2.9,0,0,1-.2-.33c0,.06,0,.15,0,.27V5c0,.13,0,.27,0,.4V8.51H18.43V2.19h1.22l2.23,3.34.25.38c.08.14.15.25.19.33V6c0-.12,0-.25,0-.38V5.2c0-.14,0-.25,0-.34V2.19h1.25V8.51Z"/><path class="cls-3" d="M31.15,6.59a2.39,2.39,0,0,1-.14.82,1.69,1.69,0,0,1-.45.64,2.4,2.4,0,0,1-.78.41,4,4,0,0,1-1.11.14,3.45,3.45,0,0,1-1.45-.3,2.55,2.55,0,0,1-1-.84l.91-.81a2.13,2.13,0,0,0,.75.55,2.29,2.29,0,0,0,.87.17,1.65,1.65,0,0,0,.84-.17.57.57,0,0,0,.26-.52.76.76,0,0,0-.05-.27.69.69,0,0,0-.21-.21A1.6,1.6,0,0,0,29.15,6c-.18-.06-.42-.12-.72-.19a5.79,5.79,0,0,1-.8-.23A2.69,2.69,0,0,1,27,5.25a1.41,1.41,0,0,1-.4-.53,1.81,1.81,0,0,1-.15-.78,1.66,1.66,0,0,1,.18-.78,1.68,1.68,0,0,1,.48-.58,2.23,2.23,0,0,1,.72-.37,3.12,3.12,0,0,1,.88-.13A2.92,2.92,0,0,1,30,2.35a3.38,3.38,0,0,1,1,.73L30.1,4a2.23,2.23,0,0,0-.65-.48,1.86,1.86,0,0,0-.79-.17,1.67,1.67,0,0,0-.42.05A.91.91,0,0,0,28,3.5a.6.6,0,0,0-.15.18.54.54,0,0,0,0,.21.53.53,0,0,0,.06.26.51.51,0,0,0,.2.18,1.44,1.44,0,0,0,.39.15c.16,0,.37.11.63.17s.5.13.75.21a2.53,2.53,0,0,1,.68.33,1.85,1.85,0,0,1,.49.55A1.7,1.7,0,0,1,31.15,6.59Z"/><path class="cls-3" d="M38.22,7.84a2.45,2.45,0,0,1-1.88.76,3,3,0,0,1-1.05-.19,2.27,2.27,0,0,1-.81-.56A2.63,2.63,0,0,1,34,7a3.78,3.78,0,0,1-.18-1.22V2.18H35V5.71a1.93,1.93,0,0,0,.35,1.21,1.26,1.26,0,0,0,1.91,0,1.83,1.83,0,0,0,.35-1.2V2.17h1.25V5.7A3.1,3.1,0,0,1,38.22,7.84Z"/><path class="cls-3" d="M46.54,8.49V6.16c0-.08,0-.19,0-.32V5.43c0-.14,0-.26,0-.39V4.77l-.19.48c-.08.2-.17.39-.25.57L44.85,8.63,43.56,5.82c-.08-.18-.17-.36-.25-.56l-.19-.48v.27c0,.12,0,.25,0,.39v.4c0,.14,0,.24,0,.33V8.49H41.9V2.17h1.22L44.44,5l.12.28c0,.1.09.2.13.3l.11.27c0,.08.05.15.07.21,0-.12.1-.29.18-.49L45.29,5l1.27-2.87h1.25V8.48Z"/><path class="cls-3" d="M56,5.32a4.58,4.58,0,0,1-.18,1.32,3.06,3.06,0,0,1-.54,1,2.47,2.47,0,0,1-.86.67,2.92,2.92,0,0,1-2.32,0,2.36,2.36,0,0,1-.86-.67,2.81,2.81,0,0,1-.54-1,4.25,4.25,0,0,1-.19-1.32A4.25,4.25,0,0,1,50.74,4a3,3,0,0,1,.53-1,2.45,2.45,0,0,1,.86-.67,2.7,2.7,0,0,1,1.16-.24,2.67,2.67,0,0,1,1.16.24,2.58,2.58,0,0,1,.87.66,3,3,0,0,1,.53,1A4.27,4.27,0,0,1,56,5.32Zm-1.3,0a3.84,3.84,0,0,0-.08-.79,2,2,0,0,0-.26-.64A1.29,1.29,0,0,0,54,3.47a1.24,1.24,0,0,0-.66-.16,1.33,1.33,0,0,0-.65.16,1.29,1.29,0,0,0-.45.42,2,2,0,0,0-.26.64,3.94,3.94,0,0,0,0,1.58,2,2,0,0,0,.26.64,1.29,1.29,0,0,0,.45.42,1.4,1.4,0,0,0,.66.15A1.33,1.33,0,0,0,54,7.17a1.16,1.16,0,0,0,.45-.43,1.78,1.78,0,0,0,.26-.63A3.36,3.36,0,0,0,54.74,5.32Z"/><path class="cls-3" d="M63.28,6.56a2.39,2.39,0,0,1-.14.82,1.66,1.66,0,0,1-.45.63,2.07,2.07,0,0,1-.78.41,3.63,3.63,0,0,1-1.11.15,3.31,3.31,0,0,1-1.45-.31,2.45,2.45,0,0,1-1-.83l.91-.82a2,2,0,0,0,.75.56,2.28,2.28,0,0,0,.87.16,1.6,1.6,0,0,0,.83-.16A.56.56,0,0,0,62,6.65a.68.68,0,0,0,0-.27.53.53,0,0,0-.21-.21A1.6,1.6,0,0,0,61.28,6c-.18-.06-.42-.12-.72-.19a7.63,7.63,0,0,1-.8-.23,2.71,2.71,0,0,1-.63-.35,1.37,1.37,0,0,1-.4-.52,1.82,1.82,0,0,1-.15-.79,1.62,1.62,0,0,1,.18-.77,1.61,1.61,0,0,1,.48-.59A2,2,0,0,1,60,2.18a2.75,2.75,0,0,1,.88-.13,3.06,3.06,0,0,1,1.29.26,3.41,3.41,0,0,1,1,.74l-.91.89a2.51,2.51,0,0,0-.66-.49,1.78,1.78,0,0,0-.78-.16,1.27,1.27,0,0,0-.42,0,.66.66,0,0,0-.28.13.43.43,0,0,0-.15.18.38.38,0,0,0,0,.21.49.49,0,0,0,.06.25.61.61,0,0,0,.2.19,2.68,2.68,0,0,0,.39.15l.62.16c.26.06.51.13.76.21a2.55,2.55,0,0,1,.68.34,1.73,1.73,0,0,1,.49.55A1.65,1.65,0,0,1,63.28,6.56Z"/><path class="cls-3" d="M73,6v2.5H71.71V6L69.31,2.14h1.45l.89,1.5c.06.09.12.2.19.32s.14.23.2.35l.17.32c.06.1.1.18.13.24l.12-.24a3,3,0,0,0,.18-.32L72.83,4,73,3.64l.89-1.5h1.44Z"/><path class="cls-3" d="M86.61,4.13a2.39,2.39,0,0,1-.17.94,1.87,1.87,0,0,1-.48.65,1.94,1.94,0,0,1-.73.37,3.26,3.26,0,0,1-.9.12H82.94V8.45H81.68V2.13h2.75a2.84,2.84,0,0,1,.84.13,2,2,0,0,1,.7.37,2,2,0,0,1,.47.63A2.16,2.16,0,0,1,86.61,4.13Zm-1.3,0a.74.74,0,0,0-.25-.61,1.13,1.13,0,0,0-.67-.19H82.93V5h1.48Q85.31,5,85.31,4.16Z"/><path class="cls-3" d="M92.83,8.44,91.7,6.16H90.43V8.44H89.18V2.12h2.94a2.94,2.94,0,0,1,.84.12,1.92,1.92,0,0,1,.69.37,1.74,1.74,0,0,1,.47.63,2,2,0,0,1,.17.88A2.07,2.07,0,0,1,94,5.29a1.88,1.88,0,0,1-.9.69l1.21,2.46ZM93,4.15a.72.72,0,0,0-.24-.61,1.08,1.08,0,0,0-.66-.19H90.43V5h1.65C92.68,5,93,4.7,93,4.15Z"/><path class="cls-3" d="M97.06,8.43V2.11h4.38V3.34H98.31V4.43h1.82V5.67H98.31V7.19h3.26V8.43Z"/><path class="cls-3" d="M109,6.51a2,2,0,0,1-.14.82,1.5,1.5,0,0,1-.45.64,2.25,2.25,0,0,1-.77.41,4,4,0,0,1-1.11.14,3.39,3.39,0,0,1-1.45-.3,2.55,2.55,0,0,1-1-.84l.91-.82a1.94,1.94,0,0,0,.74.56,2.38,2.38,0,0,0,.88.17,1.75,1.75,0,0,0,.83-.17.56.56,0,0,0,.27-.52.6.6,0,0,0-.06-.27.55.55,0,0,0-.2-.21,1.6,1.6,0,0,0-.43-.19l-.72-.19a5.42,5.42,0,0,1-.8-.23,2.34,2.34,0,0,1-.63-.34,1.54,1.54,0,0,1-.41-.53,2,2,0,0,1-.14-.78,1.79,1.79,0,0,1,.17-.78A1.8,1.8,0,0,1,105,2.5a2.45,2.45,0,0,1,.72-.37,3.17,3.17,0,0,1,.88-.13,2.93,2.93,0,0,1,1.3.27,3.51,3.51,0,0,1,1,.73l-.91.89a2.41,2.41,0,0,0-.66-.48,1.79,1.79,0,0,0-.78-.17,1.75,1.75,0,0,0-.43,0,.85.85,0,0,0-.27.13.52.52,0,0,0-.16.18.58.58,0,0,0,0,.47.45.45,0,0,0,.2.18,1.67,1.67,0,0,0,.39.15l.62.16c.25.06.5.13.76.22a2.46,2.46,0,0,1,.67.33,1.72,1.72,0,0,1,.49.55A1.67,1.67,0,0,1,109,6.51Z"/><path class="cls-3" d="M114.41,3.33V8.41h-1.26V3.33h-1.82V2.1h4.89V3.33Z"/><path class="cls-3" d="M122.37,8.41,121.87,7h-2.31l-.5,1.41h-1.35l2.41-6.32h1.23l2.41,6.32ZM121,4.65c-.07-.18-.13-.37-.19-.54s-.1-.32-.13-.44c0,.12-.07.27-.13.44s-.12.36-.19.54L120,5.8h1.44Z"/><path class="cls-3" d="M129.68,3.92a1.22,1.22,0,0,0-.45-.5,1.18,1.18,0,0,0-.7-.19,1.48,1.48,0,0,0-.64.16,1.2,1.2,0,0,0-.46.41,1.82,1.82,0,0,0-.29.63,3,3,0,0,0-.1.81,2.85,2.85,0,0,0,.1.79,1.87,1.87,0,0,0,.29.64,1.38,1.38,0,0,0,.48.42,1.28,1.28,0,0,0,.63.15,1.21,1.21,0,0,0,.71-.19,1.8,1.8,0,0,0,.52-.61l1.07.63a2.51,2.51,0,0,1-.9,1,2.57,2.57,0,0,1-1.44.38,2.7,2.7,0,0,1-1.12-.23,2.55,2.55,0,0,1-.88-.65,3.1,3.1,0,0,1-.56-1,4.35,4.35,0,0,1-.2-1.35,4.25,4.25,0,0,1,.2-1.32,3.13,3.13,0,0,1,.58-1,2.55,2.55,0,0,1,.89-.67A2.63,2.63,0,0,1,128.54,2a2.9,2.9,0,0,1,.81.1,2.5,2.5,0,0,1,.64.29,2.11,2.11,0,0,1,.5.44,3.29,3.29,0,0,1,.37.57Z"/><path class="cls-3" d="M133.52,8.4V2.07h1.25V8.39Z"/><path class="cls-3" d="M143.05,5.22a4.6,4.6,0,0,1-.18,1.33,2.89,2.89,0,0,1-.54,1,2.47,2.47,0,0,1-.86.67,2.67,2.67,0,0,1-1.16.24,2.7,2.7,0,0,1-1.16-.24,2.36,2.36,0,0,1-.86-.67,2.81,2.81,0,0,1-.54-1,4.57,4.57,0,0,1-.19-1.32,4.25,4.25,0,0,1,.19-1.32,3,3,0,0,1,.53-1,2.39,2.39,0,0,1,.87-.67A2.64,2.64,0,0,1,140.31,2a2.7,2.7,0,0,1,1.16.24,2.54,2.54,0,0,1,.86.66,3.25,3.25,0,0,1,.54,1A4.58,4.58,0,0,1,143.05,5.22Zm-1.3,0a3.25,3.25,0,0,0-.08-.79,1.76,1.76,0,0,0-.26-.64,1.29,1.29,0,0,0-.45-.42,1.23,1.23,0,0,0-.65-.16,1.24,1.24,0,0,0-.66.16,1.29,1.29,0,0,0-.45.42,2,2,0,0,0-.26.64,3.91,3.91,0,0,0-.08.79A3.35,3.35,0,0,0,139,6a2,2,0,0,0,.25.64,1.24,1.24,0,0,0,.46.42,1.48,1.48,0,0,0,1.3,0,1.26,1.26,0,0,0,.46-.43,2,2,0,0,0,.25-.63A3.36,3.36,0,0,0,141.75,5.23Z"/><path class="cls-3" d="M149.78,8.38l-2.32-3.45-.24-.38c-.09-.14-.16-.25-.2-.33s0,.15,0,.26v.38c0,.14,0,.27,0,.41V8.38h-1.25V2.06H147l2.23,3.34.25.38c.08.14.15.25.19.33s0-.15,0-.26V5.47c0-.14,0-.27,0-.41v-3h1.25V8.38Z"/><path class="cls-3" d="M154,8.37V2.05h4.38V3.29h-3.12V4.37H157V5.61h-1.81V7.14h3.26V8.37Z"/><path class="cls-3" d="M165.89,6.45a2.18,2.18,0,0,1-.15.82,1.5,1.5,0,0,1-.45.64,2.25,2.25,0,0,1-.77.41,4,4,0,0,1-1.11.14,3.45,3.45,0,0,1-1.45-.3,2.55,2.55,0,0,1-1-.84l.91-.81a2,2,0,0,0,.75.55,2.29,2.29,0,0,0,.87.17,1.58,1.58,0,0,0,.83-.17.56.56,0,0,0,.27-.52.6.6,0,0,0-.06-.27.55.55,0,0,0-.2-.21,1.6,1.6,0,0,0-.43-.19c-.18-.06-.42-.12-.72-.19a5.42,5.42,0,0,1-.8-.23,2.69,2.69,0,0,1-.63-.34,1.41,1.41,0,0,1-.4-.53,1.81,1.81,0,0,1-.15-.78,1.66,1.66,0,0,1,.18-.78,1.58,1.58,0,0,1,.48-.58,2.23,2.23,0,0,1,.72-.37,3.06,3.06,0,0,1,.88-.13,2.92,2.92,0,0,1,1.29.27,3.38,3.38,0,0,1,1,.73l-.91.89a2.27,2.27,0,0,0-.66-.48,1.79,1.79,0,0,0-.78-.17,1.61,1.61,0,0,0-.42,0,.81.81,0,0,0-.28.13.65.65,0,0,0-.16.18.58.58,0,0,0,0,.47.51.51,0,0,0,.2.18,1.44,1.44,0,0,0,.39.15l.62.17c.26.06.51.13.76.21a2.68,2.68,0,0,1,.68.33,1.85,1.85,0,0,1,.49.55A1.7,1.7,0,0,1,165.89,6.45Z"/></g></svg>